<?xml version="1.0" standalone="no"?>
<!DOCTYPE svg PUBLIC "-//W3C//DTD SVG 20010904//EN"
 "http://www.w3.org/TR/2001/REC-SVG-20010904/DTD/svg10.dtd">
<svg version="1.0" xmlns="http://www.w3.org/2000/svg"
 width="700.000000pt" height="700.000000pt" viewBox="0 0 700.000000 700.000000"
 preserveAspectRatio="xMidYMid meet">
<metadata>
Created by potrace 1.14, written by Peter Selinger 2001-2017
</metadata>
<g transform="translate(0.000000,700.000000) scale(0.100000,-0.100000)"
fill="#000000" stroke="none">
<path d="M3278 6995 c-1 -1 -42 -5 -89 -9 -47 -4 -95 -8 -105 -10 -10 -2 -41
-7 -69 -10 -53 -7 -143 -22 -185 -32 -14 -3 -38 -7 -55 -10 -224 -39 -579
-165 -855 -305 -694 -351 -1246 -915 -1578 -1612 -46 -96 -152 -359 -152 -377
0 -5 -4 -18 -9 -28 -30 -53 -116 -412 -140 -582 -30 -210 -35 -290 -35 -535 0
-254 4 -307 49 -605 24 -162 124 -501 206 -700 52 -129 161 -352 204 -420 14
-22 25 -42 25 -45 0 -3 40 -65 89 -138 224 -335 433 -563 764 -833 183 -150
508 -344 745 -445 26 -11 60 -26 77 -34 117 -51 397 -141 534 -171 151 -33
247 -51 326 -59 28 -3 55 -8 62 -10 80 -27 656 -26 843 1 440 64 777 167 1136
347 398 200 764 479 1041 795 32 36 65 72 73 81 8 9 31 37 50 61 19 25 38 50
43 55 162 201 346 522 462 805 37 89 124 330 125 345 0 3 0 6 1 8 0 1 2 9 4
17 2 8 19 80 39 160 19 80 37 163 41 185 3 23 7 52 10 65 3 14 10 63 15 110 6
47 13 103 16 125 10 66 11 483 3 585 -12 137 -25 248 -34 280 -2 8 -7 35 -10
60 -4 25 -11 65 -17 90 -5 25 -12 56 -14 70 -3 14 -16 68 -30 120 -101 377
-258 726 -467 1040 -66 98 -199 279 -229 311 -7 8 -31 34 -52 59 -101 116
-272 285 -381 375 -33 28 -62 53 -65 56 -8 9 -190 143 -239 175 -283 186 -545
313 -866 419 -118 39 -334 97 -410 109 -16 3 -70 12 -120 20 -49 8 -115 18
-145 21 -30 4 -68 9 -85 11 -34 5 -541 14 -547 9z"/>
</g>
</svg>
